<svg height="100" width="100">
<polyline points="50.0,103.0 50.66600011381769,102.99581534280225 51.33189505849688,102.98326203201489 51.99757968150653,102.96234204995122 52.66294886352779,102.93305870011892 53.32789753505361,102.89541660669839 53.992320692980435,102.84942171381253 54.65611341718939,102.79508128458815 55.31917088711439,102.7324039000089 55.98138839829453,102.66139945756045 56.64266137890812,102.58207916966732 57.30288540628582,102.4944555619225 57.96195622340012,102.39854247110945 58.61976975532883,102.294355043017 59.27622212568963,102.18190973004789 59.931209673043405,102.06122428862051 60.58462896726357,101.93231777636508 61.236376825868895,101.79521054911426 61.8863503303172,101.64992425768858 62.53444684225741,101.49648184447773 63.180564019737304,101.33490753981745 63.82459983336454,101.16522685816352 64.46645258241824,100.98746659406255 65.10602091090874,100.80165481792092 65.74320382358285,100.60782087157207 66.3779007018722,100.40599536364314 67.01001131978211,100.19621016472145 67.63943585971829,99.97849840232182 68.26607492824941,99.75289445565534 68.8898295718023,99.51943395020044 69.51060129228793,99.27815375207732 70.12829206265546,99.02909196222629 70.74280434237173,98.77228791039113 71.35404109282412,98.50778214890863 71.96190579264406,98.23561644630476 72.56630245294885,97.95583378069904 73.16713563249945,97.66847833301767 73.76431045277171,97.37359548001697 74.35773261293886,97.07123178711785 74.94730840476262,96.76143500105252 75.53294472739091,96.44425404232477 76.11454910205946,96.11973899748486 76.69202968669532,95.78794111122026 77.26529529041984,95.44891277826356 77.83425538794867,95.10270753511867 78.39882013388683,94.7493800516068 78.95890037691626,94.38898612223352 79.51440767387396,94.02158265737808 80.06525430371809,93.64722767430665 80.61135328138019,93.26598028801075 81.15261837150108,92.87790070187222 81.6889641020485,92.48305019815646 82.22030577781408,92.08149112833527 82.74655949378771,91.67328690324081 83.26764214840713,91.25850198305224 83.78347145668056,90.83720186711682 84.29396596318055,90.40945308360673 84.7990450549067,89.97532317901349 85.29862897401534,89.53488070748165 85.79263883041429,89.08819521998322 86.2809966142205,88.63533725333481 86.76362520807866,88.17637831905907 87.240448399339,87.71139089209213 87.71139089209213,87.240448399339 88.17637831905907,86.76362520807865 88.63533725333481,86.2809966142205 89.08819521998322,85.79263883041429 89.53488070748165,85.29862897401534 89.97532317901349,84.79904505490668 90.40945308360673,84.29396596318055 90.83720186711683,83.78347145668056 91.25850198305224,83.26764214840713 91.67328690324081,82.74655949378771 92.08149112833527,82.22030577781408 92.48305019815646,81.6889641020485 92.87790070187222,81.15261837150106 93.26598028801075,80.61135328138018 93.64722767430665,80.06525430371809 94.02158265737808,79.51440767387396 94.38898612223352,78.95890037691626 94.7493800516068,78.39882013388682 95.10270753511867,77.83425538794867 95.44891277826358,77.26529529041984 95.78794111122026,76.69202968669532 96.11973899748486,76.11454910205946 96.44425404232477,75.53294472739091 96.76143500105252,74.94730840476262 97.07123178711787,74.35773261293885 97.37359548001697,73.76431045277171 97.66847833301767,73.16713563249944 97.95583378069904,72.56630245294885 98.23561644630477,71.96190579264405 98.50778214890863,71.35404109282412 98.77228791039113,70.74280434237173 99.02909196222629,70.12829206265546 99.27815375207733,69.51060129228793 99.51943395020044,68.8898295718023 99.75289445565534,68.2660749282494 99.97849840232182,67.63943585971829 100.19621016472145,67.0100113197821 100.40599536364314,66.37790070187222 100.60782087157207,65.74320382358285 100.80165481792092,65.10602091090874 100.98746659406255,64.46645258241824 101.16522685816352,63.824599833364545 101.33490753981745,63.180564019737304 101.49648184447771,62.53444684225741 101.64992425768858,61.8863503303172 101.79521054911426,61.23637682586889 101.93231777636508,60.58462896726357 102.06122428862051,59.9312096730434 102.18190973004789,59.27622212568963 102.294355043017,58.619769755328825 102.39854247110945,57.96195622340012 102.4944555619225,57.30288540628581 102.58207916966732,56.64266137890812 102.66139945756045,55.98138839829453 102.7324039000089,55.31917088711439 102.79508128458815,54.65611341718938 102.84942171381253,53.992320692980435 102.89541660669839,53.32789753505361 102.93305870011892,52.66294886352779 102.96234204995122,51.99757968150653 102.98326203201489,51.33189505849689 102.99581534280225,50.66600011381769 103.0,50.0 102.99581534280225,49.33399988618231 102.98326203201489,48.66810494150312 102.96234204995122,48.00242031849347 102.93305870011892,47.337051136472205 102.89541660669839,46.67210246494639 102.84942171381253,46.00767930701956 102.79508128458815,45.34388658281061 102.7324039000089,44.680829112885604 102.66139945756045,44.01861160170547 102.58207916966732,43.35733862109187 102.4944555619225,42.69711459371418 102.39854247110944,42.03804377659987 102.294355043017,41.38023024467117 102.18190973004789,40.723777874310365 102.06122428862051,40.068790326956595 101.93231777636508,39.415371032736424 101.79521054911426,38.763623174131105 101.64992425768858,38.11364966968279 101.49648184447773,37.46555315774259 101.33490753981745,36.819435980262696 101.16522685816352,36.17540016663546 100.98746659406255,35.53354741758176 100.80165481792092,34.89397908909127 100.60782087157207,34.25679617641715 100.40599536364314,33.62209929812778 100.19621016472144,32.98998868021789 99.97849840232182,32.360564140281696 99.75289445565534,31.733925071750594 99.51943395020044,31.11017042819771 99.27815375207732,30.489398707712066 99.02909196222629,29.871707937344535 98.77228791039113,29.25719565762827 98.50778214890863,28.645958907175874 98.23561644630476,28.03809420735594 97.95583378069904,27.433697547051146 97.66847833301766,26.832864367500544 97.37359548001699,26.235689547228297 97.07123178711787,25.642267387061146 96.76143500105252,25.05269159523737 96.44425404232476,24.46705527260908 96.11973899748486,23.885450897940554 95.78794111122028,23.30797031330468 95.44891277826356,22.734704709580154 95.10270753511867,22.165744612051324 94.7493800516068,21.601179866113192 94.38898612223352,21.041099623083745 94.02158265737808,20.48559232612603 93.64722767430665,19.9347456962819 93.26598028801074,19.388646718619807 92.87790070187222,18.84738162849893 92.48305019815646,18.311035897951495 92.08149112833527,17.77969422218591 91.6732869032408,17.25344050621227 91.25850198305224,16.73235785159288 90.83720186711683,16.21652854331944 90.40945308360673,15.706034036819446 89.97532317901349,15.2009549450933 89.53488070748166,14.701371025984663 89.08819521998322,14.207361169585702 88.6353372533348,13.719003385779494 88.17637831905905,13.236374791921328 87.71139089209214,12.759551600660998 87.240448399339,12.288609107907874 86.76362520807865,11.823621680940938 86.2809966142205,11.364662746665182 85.7926388304143,10.911804780016787 85.29862897401534,10.465119292518345 84.79904505490668,10.0246768209865 84.29396596318054,9.590546916393258 83.78347145668054,9.162798132883161 83.26764214840713,8.741498016947766 82.74655949378771,8.326713096759192 82.22030577781408,7.918508871664727 81.68896410204849,7.516949801843531 81.15261837150108,7.122099298127793 80.61135328138019,6.734019711989248 80.06525430371809,6.352772325693351 79.51440767387396,5.978417342621917 78.95890037691628,5.611013877766489 78.39882013388683,5.250619948393201 77.83425538794867,4.897292464881332 77.26529529041983,4.551087221736424 76.69202968669532,4.212058888779737 76.11454910205946,3.880261002515141 75.53294472739091,3.555745957675228 74.94730840476262,3.238564998947467 74.35773261293886,2.92876821288214 73.76431045277171,2.6264045199830193 73.16713563249945,2.331521666982333 72.56630245294885,2.044166219300962 71.96190579264405,1.7643835536952253 71.35404109282413,1.4922178510913753 70.74280434237173,1.2277120896088718 70.12829206265545,0.970908037773718 69.51060129228792,0.7218462479226702 68.8898295718023,0.4805660497995632 68.26607492824941,0.24710554434467014 67.63943585971828,0.021501597678174278 67.0100113197821,-0.1962101647214496 66.37790070187222,-0.40599536364313593 65.74320382358285,-0.6078208715720805 65.10602091090873,-0.8016548179209195 64.46645258241823,-0.9874665940625533 63.824599833364545,-1.1652268581635141 63.180564019737304,-1.3349075398174506 62.5344468422574,-1.4964818444777208 61.88635033031719,-1.649924257688589 61.2363768258689,-1.795210549114259 60.584628967263576,-1.9323177763650818 59.931209673043405,-2.061224288620501 59.27622212568962,-2.1819097300478916 58.61976975532882,-2.2943550430170134 57.96195622340013,-2.398542471109444 57.30288540628582,-2.494455561922514 56.642661378908116,-2.582079169667324 55.98138839829451,-2.6613994575604494 55.319170887114396,-2.7324039000089044 54.65611341718939,-2.795081284588143 53.99232069298043,-2.849421713812532 53.327897535053594,-2.89541660669839 52.662948863527795,-2.93305870011892 51.99757968150653,-2.962342049951225 51.33189505849688,-2.983262032014899 50.666000113817674,-2.9958153428022527 50.00000000000001,-3.0 49.33399988618231,-2.9958153428022527 48.66810494150311,-2.983262032014899 48.002420318493456,-2.962342049951225 47.33705113647222,-2.93305870011892 46.67210246494639,-2.89541660669839 46.007679307019565,-2.849421713812532 45.343886582810605,-2.795081284588143 44.6808291128856,-2.7324039000089044 44.01861160170547,-2.6613994575604494 43.35733862109187,-2.582079169667324 42.697114593714176,-2.494455561922514 42.038043776599864,-2.398542471109444 41.380230244671175,-2.2943550430170063 40.723777874310365,-2.1819097300478845 40.06879032695659,-2.061224288620494 39.41537103273642,-1.9323177763650818 38.76362317413111,-1.795210549114259 38.1136496696828,-1.649924257688582 37.46555315774258,-1.4964818444777137 36.81943598026268,-1.3349075398174506 36.17540016663547,-1.1652268581635141 35.533547417581765,-0.9874665940625533 34.89397908909126,-0.8016548179209195 34.25679617641714,-0.6078208715720805 33.62209929812779,-0.40599536364314304 32.9899886802179,-0.1962101647214496 32.3605641402817,0.021501597678181383 31.733925071750587,0.24710554434467014 31.1101704281977,0.4805660497995703 30.48939870771207,0.7218462479226702 29.87170793734454,0.970908037773718 29.257195657628262,1.227712089608879 28.645958907175867,1.4922178510913824 28.038094207355943,1.7643835536952324 27.43369754705115,2.044166219300962 26.832864367500548,2.33152166698234 26.23568954722828,2.6264045199830264 25.64226738706115,2.928768212882133 25.052691595237373,3.2385649989474743 24.467055272609084,3.555745957675235 23.885450897940533,3.880261002515141 23.30797031330468,4.212058888779723 22.73470470958016,4.551087221736438 22.165744612051324,4.897292464881332 21.60117986611317,5.250619948393208 21.041099623083745,5.611013877766489 20.48559232612604,5.978417342621924 19.934745696281905,6.352772325693351 19.38864671861981,6.734019711989262 18.847381628498912,7.122099298127793 18.311035897951502,7.516949801843538 17.77969422218591,7.918508871664727 17.25344050621227,8.326713096759207 16.732357851592866,8.741498016947773 16.21652854331945,9.162798132883168 15.706034036819446,9.590546916393265 15.2009549450933,10.024676820986507 14.701371025984656,10.465119292518352 14.20736116958571,10.91180478001678 13.719003385779494,11.36466274666519 13.236374791921335,11.823621680940938 12.759551600660984,12.288609107907888 12.288609107907881,12.759551600660991 11.823621680940938,13.236374791921342 11.36466274666519,13.719003385779502 10.911804780016773,14.207361169585717 10.465119292518345,14.701371025984663 10.024676820986507,15.200954945093308 9.590546916393265,15.706034036819453 9.162798132883161,16.216528543319455 8.741498016947752,16.732357851592887 8.326713096759185,17.2534405062123 7.918508871664713,17.779694222185938 7.516949801843552,18.31103589795149 7.122099298127793,18.84738162849892 6.734019711989248,19.388646718619817 6.352772325693351,19.93474569628191 5.978417342621917,20.485592326126042 5.6110138777664815,21.04109962308375 5.250619948393194,21.601179866113196 4.897292464881318,22.165744612051352 4.551087221736445,22.734704709580143 4.212058888779737,23.307970313304665 3.880261002515141,23.885450897940544 3.555745957675228,24.46705527260909 3.238564998947467,25.052691595237377 2.928768212882133,25.642267387061157 2.626404519983012,26.235689547228308 2.3315216669823258,26.83286436750058 2.044166219300976,27.433697547051132 1.7643835536952395,28.03809420735593 1.4922178510913753,28.64595890717587 1.2277120896088718,29.25719565762827 0.970908037773718,29.871707937344542 0.7218462479226702,30.489398707712077 0.4805660497995561,31.110170428197726 0.24710554434467014,31.73392507175062 0.021501597678174278,32.36056414028173 -0.19621016472144248,32.98998868021788 -0.40599536364313593,33.62209929812778 -0.6078208715720805,34.25679617641715 -0.8016548179209195,34.89397908909127 -0.9874665940625533,35.53354741758177 -1.1652268581635212,36.17540016663548 -1.3349075398174577,36.81943598026272 -1.4964818444777208,37.46555315774262 -1.649924257688582,38.11364966968278 -1.7952105491142518,38.76362317413109 -1.9323177763650818,39.415371032736424 -2.061224288620501,40.068790326956595 -2.1819097300478916,40.72377787431037 -2.2943550430170134,41.38023024467118 -2.398542471109451,42.03804377659989 -2.4944555619225213,42.697114593714204 -2.582079169667324,43.357338621091905 -2.6613994575604494,44.01861160170546 -2.7324039000089044,44.680829112885604 -2.795081284588143,45.34388658281061 -2.849421713812532,46.00767930701957 -2.89541660669839,46.6721024649464 -2.93305870011892,47.337051136472226 -2.962342049951232,48.00242031849349 -2.983262032014906,48.66810494150314 -2.9958153428022527,49.3339998861823 -3.0,49.99999999999999 -2.9958153428022527,50.66600011381768 -2.983262032014899,51.33189505849689 -2.962342049951225,51.99757968150654 -2.93305870011892,52.6629488635278 -2.89541660669839,53.32789753505363 -2.849421713812532,53.992320692980456 -2.795081284588143,54.656113417189374 -2.7324039000089044,55.31917088711438 -2.6613994575604494,55.98138839829453 -2.582079169667324,56.64266137890812 -2.494455561922514,57.302885406285824 -2.398542471109444,57.961956223400136 -2.2943550430170063,58.619769755328846 -2.1819097300478845,59.27622212568965 -2.061224288620494,59.93120967304343 -1.932317776365089,60.584628967263555 -1.795210549114259,61.23637682586889 -1.649924257688582,61.8863503303172 -1.4964818444777208,62.53444684225741 -1.3349075398174506,63.18056401973731 -1.165226858163507,63.82459983336455 -0.9874665940625462,64.46645258241826 -0.8016548179209124,65.10602091090877 -0.6078208715720805,65.74320382358283 -0.40599536364314304,66.3779007018722 -0.1962101647214496,67.0100113197821 0.021501597678181383,67.63943585971829 0.24710554434467014,68.26607492824941 0.4805660497995632,68.8898295718023 0.7218462479226844,69.51060129228794 0.9709080377737251,70.12829206265548 1.227712089608886,70.74280434237176 1.4922178510913682,71.3540410928241 1.7643835536952253,71.96190579264405 2.044166219300962,72.56630245294885 2.33152166698234,73.16713563249945 2.6264045199830264,73.76431045277172 2.9287682128821473,74.35773261293888 3.2385649989474885,74.94730840476265 3.555745957675242,75.53294472739094 3.880261002515134,76.11454910205944 4.212058888779723,76.69202968669532 4.551087221736424,77.26529529041984 4.897292464881332,77.83425538794867 5.250619948393208,78.39882013388683 5.611013877766496,78.95890037691628 5.978417342621938,79.51440767387398 6.3527723256933655,80.06525430371812 6.734019711989234,80.61135328138016 7.122099298127779,81.15261837150106 7.516949801843538,81.6889641020485 7.918508871664727,82.22030577781408 8.326713096759207,82.74655949378773 8.741498016947766,83.26764214840713 9.162798132883182,83.78347145668056 9.59054691639328,84.29396596318057 10.024676820986521,84.79904505490671 10.465119292518331,85.29862897401533 10.911804780016773,85.79263883041429 11.36466274666519,86.2809966142205 11.823621680940938,86.76362520807866 12.288609107907881,87.24044839933902 12.759551600661005,87.71139089209214 13.23637479192135,88.17637831905908 13.719003385779523,88.63533725333482 14.207361169585688,89.0881952199832 14.701371025984656,89.53488070748165 15.2009549450933,89.97532317901349 15.706034036819446,90.40945308360673 16.21652854331945,90.83720186711685 16.732357851592887,91.25850198305224 17.253440506212293,91.67328690324081 17.77969422218593,92.08149112833529 18.311035897951527,92.48305019815646 18.847381628498912,92.8779007018722 19.38864671861981,93.26598028801075 19.934745696281905,93.64722767430665 20.48559232612604,94.02158265737808 21.04109962308375,94.38898612223352 21.601179866113196,94.7493800516068 22.165744612051345,95.10270753511868 22.734704709580186,95.44891277826359 23.307970313304665,95.78794111122026 23.885450897940544,96.11973899748486 24.467055272609088,96.44425404232477 25.052691595237377,96.76143500105252 25.642267387061153,97.07123178711787 26.235689547228304,97.37359548001699 26.832864367500576,97.66847833301767 27.43369754705117,97.95583378069904 28.038094207355925,98.23561644630476 28.645958907175867,98.50778214890863 29.25719565762827,98.77228791039113 29.871707937344542,99.02909196222629 30.489398707712073,99.27815375207733 31.110170428197726,99.51943395020044 31.733925071750612,99.75289445565534 32.36056414028173,99.97849840232183 32.98998868021792,100.19621016472146 33.62209929812778,100.40599536364314 34.25679617641714,100.60782087157207 34.89397908909126,100.80165481792092 35.533547417581765,100.98746659406255 36.17540016663547,101.16522685816352 36.81943598026271,101.33490753981746 37.46555315774261,101.49648184447773 38.11364966968282,101.64992425768858 38.76362317413109,101.79521054911424 39.41537103273642,101.93231777636508 40.06879032695659,102.06122428862051 40.72377787431037,102.18190973004789 41.380230244671175,102.29435504301702 42.03804377659989,102.39854247110945 42.697114593714204,102.49445556192252 43.3573386210919,102.58207916966732 44.0186116017055,102.66139945756046 44.680829112885604,102.7324039000089 45.343886582810605,102.79508128458815 46.007679307019565,102.84942171381253 46.6721024649464,102.89541660669839 47.337051136472226,102.93305870011892 48.002420318493485,102.96234204995122 48.66810494150314,102.98326203201489 49.33399988618234,102.99581534280225 49.999999999999986,103.0 "
fill="none" stroke="black" /></svg>