<svg height="100" width="100">
<polyline points="100.0,50.0 99.74552097048559,50.502641595334104 99.48476566246525,51.0052038177335 99.21777525222487,51.50760730679738 98.9445919006453,52.00977272719078 98.6652587465446,52.51162078117253 98.37981989986591,53.01307222111731 98.08832043471205,53.51404786202973 97.79080638222771,54.014468594048594 97.4873247233307,54.51425539493927 97.17792338129303,55.01332934257217 96.8626512141733,55.51161162738552 96.54155800710143,56.00902356483029 96.21469446441705,56.50548660779534 95.8821122016627,57.00092235901104 95.54386373743306,57.495252583428986 95.20000248508174,57.988399220576284 94.85058274428664,58.48028439688218 94.49565969247546,58.970830437975245 94.13528937611247,59.459959880948986 93.76952870184815,59.947595486594196 93.39843542753302,60.43366025159588 93.02206815309694,60.91807742069301 92.64048631129552,61.40077049879905 92.25375015832502,61.88166326308139 91.8619207643072,62.3606797749979 91.46506000364559,62.83774439228838 91.06323054525484,63.312781780919465 90.65649584266461,63.78571692698068 90.24492012399946,64.25647514853003 89.82856838183649,64.72498210738712 89.4075063629423,65.19116382087205 88.98180055789076,65.6549466734881 88.55151819056346,66.1162574285465 88.11672720753414,66.57502323973137 87.67749626733934,67.0311716626029 87.23389472963618,67.48463066603732 86.7859926442499,67.93532864360128 86.33386074011202,68.38319442485951 85.87757041409148,68.8281572866133 85.41719371972025,69.27014696406862 84.9528033558152,69.70909366193166 84.5569366877134,70.14492806543043 84.30106624774609,70.57758135126025 84.03977927178767,71.00698519845183 83.7731170200806,71.43307179915986 83.50112160168567,71.85577386937076 83.22383596783251,72.27502465952752 82.94130390513709,72.69075796507026 82.65357002868735,73.1029081368907 82.36067977499789,73.51141009169893 82.06267939483507,73.91619932230076 81.75961594591342,74.31721190778421 81.45153728546475,74.71438452361338 81.13849206268094,75.10765445162802 80.82052971103157,75.4969595899476 80.49770044045792,75.88223846277778 80.17005522944416,76.26343023011826 79.83764581696728,76.64047469737007 79.50052469432696,77.01331232484098 79.15874509685646,77.38188423714755 78.81236099551627,77.7461322325122 78.46142708837141,78.10599879195397 78.10599879195397,78.46142708837141 77.7461322325122,78.81236099551629 77.38188423714755,79.15874509685646 77.01331232484098,79.50052469432696 76.64047469737007,79.83764581696728 76.26343023011826,80.17005522944416 75.88223846277778,80.49770044045792 75.4969595899476,80.82052971103157 75.10765445162802,81.13849206268094 74.71438452361338,81.45153728546475 74.31721190778421,81.75961594591341 73.91619932230076,82.06267939483506 73.51141009169892,82.36067977499789 73.1029081368907,82.65357002868735 72.69075796507025,82.94130390513709 72.27502465952752,83.22383596783251 71.85577386937076,83.50112160168567 71.43307179915986,83.7731170200806 71.00698519845183,84.03977927178767 70.57758135126025,84.30106624774609 70.14492806543043,84.5569366877134 69.70909366193166,84.80735018678104 69.27014696406862,85.05226720175455 68.8281572866133,85.29164905739813 68.38319442485951,85.52545795254179 67.93532864360128,85.75365696605056 67.4846306660373,85.97621006265484 67.0311716626029,86.19308209864079 66.57502323973137,86.40423882739984 66.1162574285465,86.6096469048367 65.6549466734881,86.80927389463481 65.19116382087205,87.00308827337832 64.72498210738712,87.19105943553006 64.25647514853003,87.37315769826448 63.78571692698068,87.54935430615495 63.312781780919465,87.71962143571457 62.83774439228838,87.88393219978977 62.3606797749979,88.04226065180615 61.88166326308139,88.19458178986571 61.40077049879905,88.34087156069504 60.91807742069301,88.48110686344344 60.43366025159588,88.61526555333096 59.94759548659419,88.74332644514524 59.459959880948986,88.86526931658696 58.970830437975245,88.98107491146308 58.48028439688218,89.09072494272775 57.988399220576284,89.19420209536987 57.49525258342898,89.29149002914755 57.00092235901104,89.38257338116821 56.50548660779534,89.46743776831472 56.00902356483029,89.54606978951657 55.51161162738552,89.61845702786604 55.01332934257217,89.68458805257912 54.51425539493926,89.74445242080034 54.014468594048594,89.79804067925201 53.51404786202973,89.8453443657269 53.01307222111731,89.88635601042455 52.51162078117253,89.92106913713087 52.009772727190786,89.9494782642407 51.50760730679738,89.97157890562357 51.0052038177335,89.987367571332 50.502641595334104,89.99684176815265 50.0,90.0 49.497358404665896,89.99684176815265 48.994796182266505,89.987367571332 48.49239269320262,89.97157890562357 47.990227272809214,89.9494782642407 47.48837921882746,89.92106913713087 46.98692777888269,89.88635601042455 46.48595213797027,89.8453443657269 45.9855314059514,89.79804067925201 45.48574460506073,89.74445242080034 44.98667065742782,89.6845880525791 44.48838837261448,89.61845702786604 43.99097643516971,89.54606978951657 43.49451339220466,89.46743776831472 42.99907764098896,89.38257338116821 42.504747416571014,89.29149002914755 42.011600779423716,89.19420209536987 41.51971560311782,89.09072494272775 41.02916956202475,88.98107491146308 40.540040119051014,88.86526931658696 40.052404513405804,88.74332644514524 39.566339748404125,88.61526555333096 39.08192257930699,88.48110686344344 38.59922950120096,88.34087156069504 38.1183367369186,88.19458178986571 37.639320225002095,88.04226065180615 37.162255607711614,87.88393219978977 36.68721821908053,87.71962143571457 36.21428307301932,87.54935430615495 35.74352485146997,87.37315769826448 35.27501789261288,87.19105943553005 34.80883617912795,87.00308827337832 34.3450533265119,86.80927389463481 33.88374257145349,86.6096469048367 33.424976760268635,86.40423882739982 32.96882833739709,86.19308209864079 32.515369333962674,85.97621006265484 32.06467135639872,85.75365696605056 31.61680557514049,85.52545795254179 31.171842713386695,85.29164905739813 30.729853035931384,85.05226720175455 30.290906338068343,84.80735018678104 29.85507193456957,84.55693668771342 29.42241864873974,84.30106624774609 28.993014801548167,84.03977927178767 28.56692820084014,83.7731170200806 28.14422613062924,83.50112160168567 27.724975340472476,83.22383596783251 27.309242034929735,82.94130390513709 26.897091863109285,82.65357002868735 26.48858990830108,82.36067977499789 26.083800677699244,82.06267939483506 25.68278809221578,81.75961594591341 25.285615476386617,81.45153728546475 24.892345548371985,81.13849206268094 24.50304041005241,80.82052971103157 24.117761537222222,80.49770044045792 23.736569769881733,80.17005522944415 23.359525302629937,79.8376458169673 22.986687675159022,79.50052469432696 22.61811576285245,79.15874509685645 22.253867767487794,78.81236099551627 21.894001208046035,78.46142708837142 21.538572911628584,78.10599879195397 21.18763900448372,77.7461322325122 20.841254903143533,77.38188423714755 20.499475305673048,77.01331232484098 20.162354183032715,76.64047469737007 19.829944770555844,76.26343023011826 19.50229955954208,75.88223846277776 19.179470288968425,75.49695958994758 18.861507937319068,75.10765445162802 18.548462714535244,74.71438452361338 18.240384054086583,74.31721190778421 17.937320605164928,73.91619932230074 17.63932022500211,73.51141009169893 17.346429971312645,73.1029081368907 17.058696094862903,72.69075796507025 16.776164032167486,72.27502465952752 16.498878398314332,71.85577386937076 16.226882979919395,71.43307179915986 15.96022072821232,71.00698519845182 15.698933752253907,70.57758135126025 15.44306331228659,70.14492806543043 15.047196644184801,69.70909366193166 14.582806280279755,69.2701469640686 14.122429585908513,68.8281572866133 13.666139259887984,68.38319442485951 13.214007355750098,67.9353286436013 12.766105270363816,67.48463066603732 12.322503732660664,67.0311716626029 11.883272792465846,66.57502323973135 11.44848180943655,66.1162574285465 11.018199442109236,65.6549466734881 10.592493637057693,65.19116382087203 10.171431618163496,64.7249821073871 9.755079876000536,64.25647514853003 9.343504157335381,63.78571692698068 8.936769454745153,63.31278178091946 8.53493999635441,62.83774439228837 8.138079235692814,62.3606797749979 7.746249841674981,61.88166326308139 7.359513688704489,61.40077049879904 6.977931846903061,60.918077420693 6.601564572466984,60.43366025159588 6.230471298151855,59.947595486594196 5.864710623887532,59.459959880948986 5.504340307524529,58.97083043797524 5.1494172557133595,58.48028439688219 4.799997514918267,57.988399220576284 4.456136262566943,57.495252583428986 4.117887798337307,57.000922359011035 3.7853055355829426,56.50548660779533 3.4584419928985852,56.00902356483029 3.1373487858267097,55.51161162738552 2.8220766187069657,55.01332934257216 2.5126752766692917,54.514255394939255 2.209193617772293,54.0144685940486 1.9116795652879617,53.51404786202973 1.6201801001340925,53.013072221117305 1.3347412534553982,52.511620781172525 1.0554080993546933,52.009772727190786 0.7822247477751247,51.50760730679738 0.5152343375347499,51.005203817733495 0.2544790295144068,50.5026415953341 0.0,50.00000000000001 0.2544790295144139,49.497358404665896 0.5152343375347499,48.9947961822665 0.7822247477751318,48.49239269320261 1.0554080993546933,47.99022727280922 1.3347412534554053,47.48837921882747 1.6201801001340996,46.98692777888269 1.9116795652879688,46.485952137970266 2.2091936177723,45.98553140595139 2.512675276669299,45.48574460506073 2.822076618706973,44.98667065742783 3.137348785826717,44.48838837261447 3.4584419928985852,43.990976435169706 3.7853055355829497,43.49451339220466 4.117887798337307,42.99907764098896 4.45613626256695,42.50474741657101 4.7999975149182745,42.01160077942371 5.149417255713352,41.51971560311782 5.504340307524544,41.02916956202475 5.8647106238875395,40.54004011905101 6.230471298151855,40.0524045134058 6.601564572466977,39.566339748404125 6.9779318469030684,39.08192257930699 7.359513688704489,38.59922950120095 7.746249841674988,38.11833673691859 8.1380792356928,37.63932022500211 8.534939996354417,37.16225560771162 8.936769454745153,36.687218219080535 9.343504157335381,36.21428307301931 9.755079876000543,35.74352485146996 10.171431618163503,35.27501789261288 10.5924936370577,34.80883617912795 11.018199442109236,34.345053326511895 11.448481809436565,33.88374257145348 11.88327279246586,33.424976760268635 12.322503732660671,32.96882833739709 12.766105270363823,32.51536933396268 13.214007355750098,32.064671356398705 13.66613925988797,31.61680557514049 14.12242958590852,31.171842713386695 14.582806280279769,30.729853035931384 15.047196644184815,30.29090633806833 15.443063312286583,29.85507193456957 15.698933752253915,29.422418648739743 15.960220728212327,28.993014801548167 16.226882979919402,28.56692820084013 16.498878398314332,28.14422613062924 16.776164032167493,27.724975340472483 17.05869609486291,27.30924203492974 17.346429971312645,26.89709186310929 17.63932022500211,26.488589908301066 17.937320605164935,26.083800677699248 18.24038405408659,25.68278809221578 18.548462714535248,25.285615476386624 18.86150793731907,24.89234554837197 19.17947028896843,24.503040410052414 19.502299559542084,24.117761537222226 19.829944770555848,23.73656976988174 20.16235418303272,23.35952530262993 20.499475305673045,22.986687675159025 20.841254903143536,22.61811576285245 21.187639004483728,22.253867767487797 21.538572911628595,21.894001208046024 21.894001208046028,21.53857291162859 22.253867767487804,21.18763900448372 22.618115762852455,20.841254903143536 22.98668767515903,20.499475305673037 23.359525302629933,20.162354183032715 23.736569769881743,19.829944770555848 24.11776153722223,19.502299559542084 24.50304041005242,19.179470288968425 24.892345548371992,18.861507937319058 25.28561547638664,18.548462714535233 25.6827880922158,18.240384054086576 26.083800677699237,17.937320605164942 26.48858990830107,17.63932022500211 26.897091863109296,17.346429971312645 27.309242034929746,17.058696094862903 27.724975340472486,16.776164032167486 28.144226130629242,16.498878398314325 28.566928200840145,16.226882979919388 28.99301480154819,15.96022072821232 29.42241864873973,15.698933752253915 29.85507193456956,15.443063312286597 30.290906338068332,15.192649813218978 30.729853035931388,14.947732798245454 31.171842713386702,14.708350942601868 31.616805575140493,14.474542047458215 32.06467135639872,14.246343033949444 32.515369333962695,14.02378993734515 32.968828337397085,13.806917901359228 33.42497676026862,13.595761172600177 33.88374257145349,13.390353095163299 34.3450533265119,13.190726105365187 34.80883617912796,12.996911726621676 35.27501789261289,12.808940564469943 35.743524851469985,12.626842301735515 36.21428307301933,12.450645693845033 36.68721821908055,12.280378564285414 37.16225560771161,12.116067800210232 37.639320225002095,11.957739348193861 38.1183367369186,11.805418210134285 38.59922950120095,11.659128439304965 39.081922579307,11.518893136556564 39.56633974840413,11.384734446669043 40.05240451340582,11.25667355485475 40.54004011905103,11.13473068341304 41.02916956202474,11.018925088536918 41.5197156031178,10.909275057272268 42.011600779423716,10.805797904630126 42.504747416571014,10.708509970852454 42.999077640988965,10.617426618831786 43.49451339220467,10.532562231685276 43.99097643516973,10.453930210483435 44.488388372614494,10.38154297213395 44.98667065742785,10.315411947420884 45.485744605060724,10.255547579199664 45.9855314059514,10.201959320747996 46.48595213797027,10.154655634273098 46.986927778882695,10.113643989575444 47.488379218827475,10.078930862869136 47.99022727280923,10.050521735759304 48.49239269320263,10.028421094376426 48.99479618226652,10.012632428667999 49.49735840466588,10.003158231847358 49.99999999999999,10.0 50.502641595334104,10.003158231847358 51.0052038177335,10.012632428667999 51.50760730679739,10.028421094376434 52.00977272719079,10.050521735759304 52.511620781172546,10.078930862869136 53.013072221117326,10.113643989575444 53.51404786202971,10.154655634273098 54.01446859404859,10.201959320747996 54.51425539493926,10.255547579199664 55.01332934257217,10.315411947420884 55.51161162738553,10.38154297213395 56.00902356483029,10.453930210483442 56.505486607795355,10.532562231685276 57.00092235901106,10.617426618831786 57.49525258342901,10.708509970852454 57.98839922057627,10.805797904630118 58.48028439688218,10.90927505727226 58.970830437975245,11.018925088536918 59.459959880948986,11.13473068341304 59.947595486594196,11.256673554854757 60.43366025159589,11.38473444666905 60.918077420693024,11.51889313655657 61.40077049879906,11.659128439304972 61.881663263081386,11.805418210134278 62.36067977499789,11.957739348193854 62.83774439228838,12.116067800210224 63.312781780919465,12.28037856428542 63.78571692698068,12.45064569384504 64.25647514853003,12.626842301735522 64.72498210738713,12.80894056446995 65.19116382087206,12.996911726621683 65.65494667348811,13.190726105365194 66.1162574285465,13.390353095163292 66.57502323973137,13.59576117260017 67.0311716626029,13.806917901359213 67.48463066603732,14.023789937345164 67.9353286436013,14.24634303394945 68.38319442485952,14.474542047458229 68.82815728661332,14.708350942601875 69.27014696406863,14.947732798245468 69.70909366193166,15.19264981321897 70.14492806543043,15.443063312286583 70.57758135126025,15.698933752253907 71.00698519845183,15.960220728212327 71.43307179915988,16.226882979919402 71.85577386937078,16.49887839831434 72.27502465952753,16.7761640321675 72.69075796507028,17.058696094862917 73.10290813689069,17.34642997131263 73.51141009169892,17.639320225002095 73.91619932230076,17.937320605164935 74.31721190778421,18.24038405408659 74.71438452361338,18.548462714535248 75.10765445162804,18.861507937319068 75.49695958994761,19.17947028896844 75.88223846277779,19.5022995595421 76.26343023011827,19.829944770555862 76.64047469737005,20.162354183032708 77.01331232484097,20.499475305673037 77.38188423714755,20.841254903143536 77.7461322325122,21.187639004483728 78.10599879195397,21.53857291162859 78.46142708837142,21.894001208046042 78.81236099551629,22.25386776748781 79.15874509685648,22.61811576285247 79.50052469432694,22.98668767515901 79.83764581696728,23.35952530262993 80.17005522944416,23.73656976988174 80.49770044045792,24.117761537222226 80.82052971103158,24.503040410052414 81.13849206268094,24.892345548371992 81.45153728546477,25.285615476386635 81.75961594591342,25.682788092215798 82.06267939483507,26.083800677699266 82.36067977499789,26.488589908301066 82.65357002868735,26.89709186310929 82.94130390513709,27.30924203492974 83.22383596783251,27.724975340472483 83.50112160168567,28.144226130629242 83.7731170200806,28.566928200840145 84.03977927178768,28.993014801548185 84.30106624774609,29.42241864873976 84.5569366877134,29.85507193456956 84.95280335581519,30.290906338068332 85.41719371972025,30.729853035931388 85.87757041409148,31.1718427133867 86.33386074011203,31.616805575140493 86.78599264424992,32.06467135639872 87.2338947296362,32.515369333962695 87.67749626733934,32.96882833739711 88.11672720753413,33.42497676026862 88.55151819056344,33.88374257145348 88.98180055789076,34.3450533265119 89.4075063629423,34.80883617912795 89.8285683818365,35.27501789261289 90.24492012399948,35.743524851469985 90.65649584266464,36.21428307301933 91.06323054525487,36.68721821908055 91.46506000364559,37.16225560771164 91.86192076430719,37.639320225002095 92.253750158325,38.1183367369186 92.64048631129552,38.59922950120095 93.02206815309694,39.08192257930699 93.39843542753303,39.56633974840413 93.76952870184816,40.05240451340582 94.13528937611247,40.54004011905103 94.49565969247547,41.02916956202478 94.85058274428664,41.5197156031178 95.20000248508174,42.011600779423716 95.54386373743304,42.504747416571014 95.8821122016627,42.99907764098896 96.21469446441705,43.49451339220466 96.54155800710143,43.99097643516973 96.8626512141733,44.488388372614494 97.17792338129304,44.98667065742785 97.48732472333072,45.48574460506076 97.7908063822277,45.9855314059514 98.08832043471205,46.48595213797027 98.37981989986591,46.98692777888269 98.6652587465446,47.48837921882747 98.9445919006453,47.99022727280923 99.21777525222488,48.49239269320263 99.48476566246526,48.99479618226652 99.7455209704856,49.49735840466592 100.0,49.99999999999999 "
fill="none" stroke="black" /></svg>