<svg height="100" width="100">
<polyline points="0,50.0 1,50.31395259764657 2,50.62666616782152 3,50.93690657292862 4,51.243449435824274 5,51.545084971874736 6,51.84062276342339 7,52.12889645782536 8,52.408768370508575 9,52.67913397489498 10,52.93892626146236 11,53.18711994874345 12,53.42273552964345 13,53.64484313710706 14,53.852566213878944 15,54.045084971874736 16,54.22163962751007 17,54.38153340021932 18,54.5241352623301 19,54.64888242944126 20,54.75528258147577 21,54.84291580564316 22,54.911436253643444 23,54.96057350657239 24,54.99013364214136 25,55.0 26,54.99013364214136 27,54.96057350657239 28,54.911436253643444 29,54.84291580564316 30,54.75528258147577 31,54.64888242944126 32,54.5241352623301 33,54.38153340021932 34,54.22163962751007 35,54.045084971874736 36,53.852566213878944 37,53.64484313710706 38,53.42273552964344 39,53.187119948743444 40,52.93892626146236 41,52.67913397489498 42,52.408768370508575 43,52.12889645782536 44,51.84062276342339 45,51.545084971874736 46,51.243449435824274 47,50.93690657292862 48,50.62666616782152 49,50.31395259764657 50,50.0 51,49.68604740235343 52,49.37333383217848 53,49.06309342707138 54,48.756550564175726 55,48.454915028125264 56,48.15937723657661 57,47.87110354217464 58,47.591231629491425 59,47.32086602510502 60,47.06107373853763 61,46.81288005125655 62,46.57726447035655 63,46.35515686289294 64,46.147433786121056 65,45.954915028125264 66,45.77836037248992 67,45.61846659978068 68,45.4758647376699 69,45.35111757055874 70,45.24471741852423 71,45.15708419435684 72,45.088563746356556 73,45.03942649342761 74,45.00986635785864 75,45.0 76,45.00986635785864 77,45.03942649342761 78,45.088563746356556 79,45.15708419435684 80,45.24471741852423 81,45.35111757055874 82,45.4758647376699 83,45.61846659978068 84,45.77836037248993 85,45.954915028125264 86,46.147433786121056 87,46.35515686289294 88,46.57726447035656 89,46.81288005125655 90,47.06107373853764 91,47.32086602510502 92,47.591231629491425 93,47.87110354217464 94,48.15937723657661 95,48.454915028125264 96,48.756550564175726 97,49.06309342707138 98,49.37333383217848 99,49.68604740235343 100,50.0 100,100 0,100 "
fill="black" stroke="black" /></svg>