<svg height="100" width="1000">
<polyline points="0.0,25.0 1.0,25.031415719827795 2.0,25.062830199416762 3.0,25.094242198577042 4.0,25.125650477216688 5.0,25.15705379539064 6.0,25.188450913349673 7.0,25.219840591589325 8.0,25.251221590898847 9.0,25.28259267241012 10.0,25.313952597646566 11.0,25.345300128572028 12.0,25.376634027639664 13.0,25.40795305784079 14.0,25.439255982753714 15.0,25.470541566592573 16.0,25.501808574256074 17.0,25.5330557713763 18.0,25.564281924367407 19.0,25.59548580047435 20.0,25.626666167821522 21.0,25.657821795461413 22.0,25.68895145342319 23.0,25.720053912761262 24.0,25.751127945603784 25.0,25.782172325201156 26.0,25.81318582597442 27.0,25.84416722356367 28.0,25.87511529487638 29.0,25.906028818135688 30.0,25.936906572928624 31.0,25.967747340254302 32.0,25.998549902572034 33.0,26.029313043849406 34.0,26.060035549610273 35.0,26.090716206982712 36.0,26.121353804746906 37.0,26.151947133382954 38.0,26.182494985118623 39.0,26.212996153977038 40.0,26.243449435824274 41.0,26.273853628416912 42.0,26.304207531449485 43.0,26.334509946601877 44.0,26.364759677586626 45.0,26.394955530196146 46.0,26.42509631234988 47.0,26.45518083414136 48.0,26.485207907885176 49.0,26.51517634816387 50.0,26.545084971874736 51.0,26.574932598276526 52.0,26.604718049036048 53.0,26.634440148274713 54.0,26.664097722614933 55.0,26.693689601226456 56.0,26.723214615872585 57.0,26.752671600956294 58.0,26.782059393566254 59.0,26.81137683352273 60.0,26.84062276342339 61.0,26.869796028689002 62.0,26.898895477609006 63.0,26.927919961386984 64.0,26.956868334186012 65.0,26.985739453173903 66.0,27.014532178568313 67.0,27.043245373681746 68.0,27.07187790496642 69.0,27.100428642059033 70.0,27.128896457825363 71.0,27.157280228404794 72.0,27.185578833254663 73.0,27.213791155194507 74.0,27.24191608045016 75.0,27.269952498697734 76.0,27.29789930310744 77.0,27.325755390387293 78.0,27.353519660826663 79.0,27.381191018339695 80.0,27.408768370508575 81.0,27.43625062862666 82.0,27.463636707741458 83.0,27.490925526697453 84.0,27.518116008178804 85.0,27.545207078751858 86.0,27.57219766890753 87.0,27.599086713103546 88.0,27.62587314980648 89.0,27.65255592153367 90.0,27.679133974894985 91.0,27.70560626063438 92.0,27.731971733671344 93.0,27.758229353142152 94.0,27.784378082440938 95.0,27.81041688926065 96.0,27.83634474563378 97.0,27.862160627972955 98.0,27.887863517111338 99.0,27.91345239834288 100.0,27.938926261462367 101.0,27.964284100805298 102.0,27.989524915287593 103.0,28.014647708445125 104.0,28.039651488473027 105.0,28.064535268264883 106.0,28.089298065451672 107.0,28.113938902440562 108.0,28.138456806453505 109.0,28.162850809565622 110.0,28.187119948743447 111.0,28.211263265882923 112.0,28.23527980784722 113.0,28.259168626504394 114.0,28.282928778764784 115.0,28.30655932661826 116.0,28.330059337171257 117.0,28.3534278826836 118.0,28.37666404060512 119.0,28.399766893612096 120.0,28.422735529643443 121.0,28.445569041936743 122.0,28.468266529064024 123.0,28.490827094967365 124.0,28.513249848994246 125.0,28.535533905932738 126.0,28.557678386046426 127.0,28.579682415109154 128.0,28.601545124439536 129.0,28.623265650935235 130.0,28.64484313710706 131.0,28.666276731112802 132.0,28.687565586790868 133.0,28.708708863693694 134.0,28.729705727120912 135.0,28.750555348152297 136.0,28.77125690368052 137.0,28.791809576443608 138.0,28.81221255505724 139.0,28.83246503404675 140.0,28.852566213878944 141.0,28.87251530099367 142.0,28.892311507835117 143.0,28.91195405288294 144.0,28.931442160683094 145.0,28.950775061878453 146.0,28.969951993239178 147.0,28.988972197692856 148.0,29.007834924354384 149.0,29.02653942855561 150.0,29.045084971874736 151.0,29.06347082216547 152.0,29.081696253585918 153.0,29.099760546627262 154.0,29.117662988142136 155.0,29.13540287137281 156.0,29.152979495979064 157.0,29.170392168065856 158.0,29.18764020021071 159.0,29.204722911490844 160.0,29.221639627510076 161.0,29.238389680425417 162.0,29.254972408973458 163.0,29.271387158496474 164.0,29.28763328096826 165.0,29.30371013501972 166.0,29.319617085964175 167.0,29.33535350582245 168.0,29.35091877334763 169.0,29.3663122740496 170.0,29.38153340021932 171.0,29.39658155095278 172.0,29.411456132174767 173.0,29.426156556662278 174.0,29.440682244067723 175.0,29.45503262094184 176.0,29.46920712075632 177.0,29.48320518392618 178.0,29.497026257831855 179.0,29.510669796841015 180.0,29.5241352623301 181.0,29.537422122705586 182.0,29.55052985342498 183.0,29.563457937017514 184.0,29.576205863104587 185.0,29.588773128419906 186.0,29.601159236829353 187.0,29.613363699350572 188.0,29.62538603417229 189.0,29.637225766673307 190.0,29.648882429441258 191.0,29.660355562291056 192.0,29.67164471228306 193.0,29.682749433740963 194.0,29.69366928826937 195.0,29.70440384477113 196.0,29.71495267946432 197.0,29.725315375899022 198.0,29.73549152497372 199.0,29.745480724951474 200.0,29.755282581475768 201.0,29.764896707586093 202.0,29.774322723733214 203.0,29.783560257794154 204.0,29.79260894508688 205.0,29.801468428384716 206.0,29.81013835793043 207.0,29.818618391450048 208.0,29.82690819416637 209.0,29.835007438812177 210.0,29.842915805643155 211.0,29.85063298245053 212.0,29.85815866457337 213.0,29.86549255491063 214.0,29.872634363932885 215.0,29.879583809693738 216.0,29.88634061784097 217.0,29.89290452162736 218.0,29.899275261921233 219.0,29.905452587216672 220.0,29.911436253643444 221.0,29.91722602497665 222.0,29.922821672646027 223.0,29.92822297574499 224.0,29.93342972103934 225.0,29.938441702975688 226.0,29.94325872368957 227.0,29.947880593013256 228.0,29.952307128483255 229.0,29.956538155347534 230.0,29.960573506572388 231.0,29.96441302284907 232.0,29.968056552600043 233.0,29.971503951984992 234.0,29.9747550849065 235.0,29.9778098230154 236.0,29.980668045715863 237.0,29.983329640170147 238.0,29.98579450130307 239.0,29.988062531806126 240.0,29.99013364214136 241.0,29.992007750544875 242.0,29.993684783030087 243.0,29.995164673390622 244.0,29.996447363202947 245.0,29.997532801828658 246.0,29.998420946416502 247.0,29.999111761904047 248.0,29.99960522101908 249.0,29.999901304280684 250.0,30.0 251.0,29.999901304280684 252.0,29.99960522101908 253.0,29.999111761904047 254.0,29.998420946416502 255.0,29.997532801828658 256.0,29.996447363202947 257.0,29.995164673390622 258.0,29.993684783030087 259.0,29.992007750544875 260.0,29.99013364214136 261.0,29.988062531806126 262.0,29.98579450130307 263.0,29.983329640170147 264.0,29.980668045715863 265.0,29.9778098230154 266.0,29.9747550849065 267.0,29.971503951984992 268.0,29.968056552600043 269.0,29.96441302284907 270.0,29.960573506572388 271.0,29.956538155347534 272.0,29.952307128483255 273.0,29.947880593013256 274.0,29.94325872368957 275.0,29.938441702975688 276.0,29.93342972103934 277.0,29.92822297574499 278.0,29.922821672646027 279.0,29.91722602497665 280.0,29.911436253643444 281.0,29.905452587216672 282.0,29.899275261921233 283.0,29.89290452162736 284.0,29.88634061784097 285.0,29.879583809693738 286.0,29.872634363932885 287.0,29.86549255491063 288.0,29.85815866457337 289.0,29.850632982450527 290.0,29.842915805643155 291.0,29.835007438812177 292.0,29.82690819416637 293.0,29.818618391450048 294.0,29.81013835793043 295.0,29.801468428384716 296.0,29.79260894508688 297.0,29.78356025779415 298.0,29.774322723733214 299.0,29.764896707586093 300.0,29.755282581475768 301.0,29.745480724951474 302.0,29.73549152497372 303.0,29.725315375899022 304.0,29.71495267946432 305.0,29.70440384477113 306.0,29.69366928826937 307.0,29.682749433740963 308.0,29.67164471228306 309.0,29.660355562291056 310.0,29.648882429441258 311.0,29.637225766673307 312.0,29.62538603417229 313.0,29.613363699350575 314.0,29.601159236829353 315.0,29.588773128419906 316.0,29.576205863104587 317.0,29.563457937017514 318.0,29.550529853424976 319.0,29.537422122705586 320.0,29.5241352623301 321.0,29.510669796841015 322.0,29.497026257831855 323.0,29.48320518392618 324.0,29.46920712075632 325.0,29.45503262094184 326.0,29.440682244067723 327.0,29.426156556662278 328.0,29.411456132174767 329.0,29.39658155095278 330.0,29.38153340021932 331.0,29.3663122740496 332.0,29.35091877334763 333.0,29.33535350582245 334.0,29.319617085964175 335.0,29.30371013501972 336.0,29.28763328096826 337.0,29.271387158496474 338.0,29.254972408973458 339.0,29.238389680425414 340.0,29.221639627510076 341.0,29.204722911490848 342.0,29.18764020021071 343.0,29.170392168065856 344.0,29.152979495979064 345.0,29.135402871372808 346.0,29.117662988142136 347.0,29.099760546627262 348.0,29.081696253585918 349.0,29.06347082216547 350.0,29.045084971874736 351.0,29.02653942855561 352.0,29.007834924354384 353.0,28.988972197692856 354.0,28.969951993239178 355.0,28.950775061878453 356.0,28.931442160683094 357.0,28.91195405288294 358.0,28.892311507835117 359.0,28.87251530099367 360.0,28.852566213878944 361.0,28.83246503404675 362.0,28.81221255505724 363.0,28.791809576443608 364.0,28.771256903680516 365.0,28.750555348152297 366.0,28.729705727120912 367.0,28.708708863693694 368.0,28.687565586790868 369.0,28.6662767311128 370.0,28.644843137107056 371.0,28.62326565093523 372.0,28.601545124439532 373.0,28.579682415109154 374.0,28.557678386046426 375.0,28.535533905932738 376.0,28.513249848994246 377.0,28.490827094967365 378.0,28.468266529064024 379.0,28.445569041936743 380.0,28.422735529643443 381.0,28.399766893612096 382.0,28.37666404060512 383.0,28.3534278826836 384.0,28.330059337171257 385.0,28.30655932661826 386.0,28.28292877876478 387.0,28.259168626504394 388.0,28.23527980784722 389.0,28.21126326588292 390.0,28.187119948743447 391.0,28.162850809565622 392.0,28.138456806453505 393.0,28.113938902440562 394.0,28.089298065451672 395.0,28.064535268264883 396.0,28.039651488473027 397.0,28.014647708445125 398.0,27.989524915287593 399.0,27.964284100805298 400.0,27.938926261462367 401.0,27.91345239834288 402.0,27.887863517111338 403.0,27.862160627972955 404.0,27.83634474563378 405.0,27.81041688926065 406.0,27.784378082440938 407.0,27.75822935314215 408.0,27.731971733671347 409.0,27.70560626063438 410.0,27.679133974894985 411.0,27.65255592153367 412.0,27.625873149806477 413.0,27.599086713103546 414.0,27.57219766890753 415.0,27.545207078751854 416.0,27.518116008178804 417.0,27.490925526697453 418.0,27.463636707741458 419.0,27.43625062862666 420.0,27.408768370508575 421.0,27.381191018339695 422.0,27.353519660826663 423.0,27.32575539038729 424.0,27.29789930310744 425.0,27.269952498697734 426.0,27.24191608045016 427.0,27.213791155194507 428.0,27.185578833254663 429.0,27.157280228404794 430.0,27.128896457825363 431.0,27.10042864205903 432.0,27.07187790496642 433.0,27.043245373681746 434.0,27.014532178568313 435.0,26.985739453173903 436.0,26.956868334186012 437.0,26.927919961386984 438.0,26.898895477609006 439.0,26.869796028689002 440.0,26.84062276342339 441.0,26.81137683352273 442.0,26.782059393566254 443.0,26.752671600956294 444.0,26.723214615872585 445.0,26.693689601226456 446.0,26.664097722614933 447.0,26.634440148274713 448.0,26.604718049036045 449.0,26.574932598276522 450.0,26.545084971874736 451.0,26.51517634816387 452.0,26.485207907885176 453.0,26.45518083414136 454.0,26.42509631234988 455.0,26.394955530196146 456.0,26.364759677586626 457.0,26.334509946601877 458.0,26.304207531449485 459.0,26.273853628416912 460.0,26.243449435824274 461.0,26.212996153977038 462.0,26.182494985118623 463.0,26.15194713338295 464.0,26.121353804746906 465.0,26.090716206982712 466.0,26.060035549610273 467.0,26.029313043849406 468.0,25.998549902572034 469.0,25.967747340254302 470.0,25.936906572928624 471.0,25.906028818135685 472.0,25.87511529487638 473.0,25.84416722356367 474.0,25.813185825974415 475.0,25.782172325201156 476.0,25.751127945603784 477.0,25.720053912761262 478.0,25.68895145342319 479.0,25.657821795461413 480.0,25.62666616782152 481.0,25.595485800474346 482.0,25.564281924367407 483.0,25.5330557713763 484.0,25.501808574256074 485.0,25.470541566592573 486.0,25.439255982753714 487.0,25.40795305784079 488.0,25.376634027639664 489.0,25.345300128572028 490.0,25.313952597646566 491.0,25.28259267241012 492.0,25.251221590898847 493.0,25.219840591589325 494.0,25.188450913349673 495.0,25.15705379539064 496.0,25.125650477216688 497.0,25.09424219857704 498.0,25.062830199416762 499.0,25.031415719827795 500.0,25.0 501.0,24.968584280172205 502.0,24.937169800583238 503.0,24.905757801422958 504.0,24.874349522783312 505.0,24.84294620460936 506.0,24.811549086650327 507.0,24.780159408410675 508.0,24.748778409101153 509.0,24.71740732758988 510.0,24.686047402353434 511.0,24.654699871427972 512.0,24.623365972360336 513.0,24.59204694215921 514.0,24.560744017246282 515.0,24.529458433407427 516.0,24.498191425743926 517.0,24.4669442286237 518.0,24.435718075632593 519.0,24.40451419952565 520.0,24.373333832178478 521.0,24.342178204538587 522.0,24.31104854657681 523.0,24.279946087238738 524.0,24.248872054396212 525.0,24.217827674798848 526.0,24.18681417402558 527.0,24.15583277643633 528.0,24.12488470512362 529.0,24.093971181864312 530.0,24.063093427071376 531.0,24.032252659745698 532.0,24.001450097427963 533.0,23.970686956150594 534.0,23.939964450389727 535.0,23.909283793017288 536.0,23.878646195253094 537.0,23.848052866617046 538.0,23.817505014881377 539.0,23.787003846022962 540.0,23.756550564175726 541.0,23.726146371583088 542.0,23.695792468550515 543.0,23.665490053398123 544.0,23.635240322413374 545.0,23.605044469803854 546.0,23.57490368765012 547.0,23.54481916585864 548.0,23.514792092114824 549.0,23.48482365183613 550.0,23.454915028125264 551.0,23.425067401723478 552.0,23.395281950963952 553.0,23.365559851725287 554.0,23.335902277385067 555.0,23.306310398773544 556.0,23.276785384127415 557.0,23.247328399043703 558.0,23.217940606433746 559.0,23.18862316647727 560.0,23.15937723657661 561.0,23.130203971310998 562.0,23.101104522390994 563.0,23.072080038613016 564.0,23.043131665813988 565.0,23.014260546826097 566.0,22.985467821431683 567.0,22.956754626318254 568.0,22.92812209503358 569.0,22.899571357940967 570.0,22.871103542174637 571.0,22.842719771595206 572.0,22.814421166745333 573.0,22.786208844805493 574.0,22.758083919549836 575.0,22.730047501302266 576.0,22.70210069689256 577.0,22.674244609612707 578.0,22.646480339173337 579.0,22.618808981660305 580.0,22.591231629491425 581.0,22.563749371373337 582.0,22.536363292258542 583.0,22.509074473302544 584.0,22.481883991821196 585.0,22.454792921248142 586.0,22.42780233109247 587.0,22.400913286896454 588.0,22.37412685019352 589.0,22.347444078466328 590.0,22.320866025105015 591.0,22.29439373936562 592.0,22.268028266328656 593.0,22.241770646857848 594.0,22.215621917559062 595.0,22.18958311073935 596.0,22.16365525436622 597.0,22.137839372027045 598.0,22.112136482888662 599.0,22.08654760165712 600.0,22.061073738537633 601.0,22.035715899194706 602.0,22.010475084712407 603.0,21.985352291554875 604.0,21.960348511526973 605.0,21.935464731735117 606.0,21.910701934548328 607.0,21.886061097559438 608.0,21.861543193546495 609.0,21.837149190434378 610.0,21.812880051256553 611.0,21.788736734117077 612.0,21.76472019215278 613.0,21.740831373495606 614.0,21.717071221235216 615.0,21.69344067338174 616.0,21.66994066282874 617.0,21.6465721173164 618.0,21.62333595939488 619.0,21.600233106387904 620.0,21.577264470356557 621.0,21.554430958063257 622.0,21.531733470935976 623.0,21.509172905032635 624.0,21.486750151005754 625.0,21.464466094067262 626.0,21.442321613953574 627.0,21.420317584890846 628.0,21.398454875560464 629.0,21.376734349064765 630.0,21.35515686289294 631.0,21.333723268887198 632.0,21.31243441320913 633.0,21.291291136306302 634.0,21.270294272879088 635.0,21.249444651847703 636.0,21.22874309631948 637.0,21.20819042355639 638.0,21.18778744494276 639.0,21.16753496595325 640.0,21.147433786121052 641.0,21.12748469900633 642.0,21.107688492164883 643.0,21.08804594711706 644.0,21.068557839316902 645.0,21.049224938121547 646.0,21.030048006760822 647.0,21.011027802307144 648.0,20.992165075645616 649.0,20.97346057144439 650.0,20.954915028125264 651.0,20.93652917783453 652.0,20.918303746414082 653.0,20.900239453372738 654.0,20.882337011857864 655.0,20.864597128627192 656.0,20.847020504020936 657.0,20.829607831934144 658.0,20.81235979978929 659.0,20.795277088509156 660.0,20.778360372489924 661.0,20.761610319574583 662.0,20.745027591026542 663.0,20.728612841503523 664.0,20.71236671903174 665.0,20.69628986498028 666.0,20.680382914035825 667.0,20.66464649417755 668.0,20.64908122665237 669.0,20.6336877259504 670.0,20.61846659978068 671.0,20.60341844904722 672.0,20.588543867825233 673.0,20.573843443337722 674.0,20.559317755932277 675.0,20.54496737905816 676.0,20.53079287924368 677.0,20.51679481607382 678.0,20.502973742168145 679.0,20.489330203158985 680.0,20.4758647376699 681.0,20.462577877294414 682.0,20.449470146575024 683.0,20.436542062982486 684.0,20.423794136895413 685.0,20.411226871580094 686.0,20.398840763170647 687.0,20.386636300649425 688.0,20.37461396582771 689.0,20.362774233326693 690.0,20.351117570558742 691.0,20.339644437708948 692.0,20.32835528771694 693.0,20.317250566259037 694.0,20.30633071173063 695.0,20.29559615522887 696.0,20.285047320535675 697.0,20.274684624100974 698.0,20.26450847502628 699.0,20.254519275048526 700.0,20.244717418524232 701.0,20.235103292413903 702.0,20.225677276266786 703.0,20.216439742205846 704.0,20.20739105491312 705.0,20.198531571615284 706.0,20.18986164206957 707.0,20.181381608549952 708.0,20.17309180583363 709.0,20.164992561187823 710.0,20.157084194356845 711.0,20.149367017549473 712.0,20.14184133542663 713.0,20.13450744508937 714.0,20.127365636067115 715.0,20.120416190306262 716.0,20.113659382159035 717.0,20.10709547837264 718.0,20.100724738078767 719.0,20.094547412783328 720.0,20.088563746356556 721.0,20.08277397502335 722.0,20.077178327353973 723.0,20.07177702425501 724.0,20.06657027896066 725.0,20.061558297024312 726.0,20.05674127631043 727.0,20.052119406986744 728.0,20.047692871516745 729.0,20.043461844652466 730.0,20.039426493427612 731.0,20.03558697715093 732.0,20.031943447399957 733.0,20.028496048015008 734.0,20.0252449150935 735.0,20.0221901769846 736.0,20.019331954284137 737.0,20.016670359829853 738.0,20.01420549869693 739.0,20.011937468193874 740.0,20.00986635785864 741.0,20.007992249455125 742.0,20.006315216969913 743.0,20.004835326609378 744.0,20.003552636797053 745.0,20.002467198171342 746.0,20.001579053583498 747.0,20.000888238095953 748.0,20.00039477898092 749.0,20.000098695719316 750.0,20.0 751.0,20.000098695719316 752.0,20.00039477898092 753.0,20.000888238095953 754.0,20.001579053583498 755.0,20.002467198171342 756.0,20.003552636797053 757.0,20.004835326609378 758.0,20.006315216969913 759.0,20.007992249455125 760.0,20.00986635785864 761.0,20.011937468193874 762.0,20.01420549869693 763.0,20.016670359829853 764.0,20.019331954284137 765.0,20.0221901769846 766.0,20.0252449150935 767.0,20.028496048015008 768.0,20.031943447399957 769.0,20.03558697715093 770.0,20.039426493427612 771.0,20.04346184465247 772.0,20.047692871516745 773.0,20.052119406986744 774.0,20.05674127631043 775.0,20.061558297024312 776.0,20.06657027896066 777.0,20.07177702425501 778.0,20.077178327353973 779.0,20.08277397502335 780.0,20.088563746356556 781.0,20.094547412783328 782.0,20.100724738078764 783.0,20.10709547837264 784.0,20.11365938215903 785.0,20.120416190306265 786.0,20.127365636067115 787.0,20.13450744508937 788.0,20.14184133542663 789.0,20.14936701754947 790.0,20.157084194356845 791.0,20.164992561187823 792.0,20.173091805833632 793.0,20.181381608549952 794.0,20.189861642069573 795.0,20.198531571615284 796.0,20.20739105491312 797.0,20.21643974220585 798.0,20.225677276266786 799.0,20.235103292413907 800.0,20.244717418524232 801.0,20.254519275048526 802.0,20.26450847502628 803.0,20.274684624100978 804.0,20.28504732053568 805.0,20.29559615522887 806.0,20.30633071173063 807.0,20.317250566259037 808.0,20.32835528771694 809.0,20.339644437708944 810.0,20.351117570558742 811.0,20.362774233326693 812.0,20.37461396582771 813.0,20.386636300649428 814.0,20.39884076317065 815.0,20.411226871580094 816.0,20.42379413689541 817.0,20.436542062982486 818.0,20.44947014657502 819.0,20.462577877294414 820.0,20.4758647376699 821.0,20.489330203158985 822.0,20.502973742168145 823.0,20.51679481607382 824.0,20.53079287924368 825.0,20.54496737905816 826.0,20.559317755932277 827.0,20.573843443337722 828.0,20.588543867825233 829.0,20.60341844904722 830.0,20.61846659978068 831.0,20.6336877259504 832.0,20.64908122665237 833.0,20.66464649417755 834.0,20.680382914035825 835.0,20.696289864980283 836.0,20.71236671903174 837.0,20.728612841503526 838.0,20.745027591026542 839.0,20.761610319574586 840.0,20.778360372489924 841.0,20.795277088509152 842.0,20.81235979978929 843.0,20.829607831934144 844.0,20.84702050402094 845.0,20.86459712862719 846.0,20.882337011857864 847.0,20.900239453372738 848.0,20.91830374641408 849.0,20.93652917783453 850.0,20.954915028125264 851.0,20.97346057144439 852.0,20.992165075645616 853.0,21.011027802307147 854.0,21.030048006760822 855.0,21.04922493812155 856.0,21.068557839316906 857.0,21.08804594711706 858.0,21.107688492164883 859.0,21.12748469900633 860.0,21.147433786121056 861.0,21.16753496595325 862.0,21.187787444942764 863.0,21.208190423556392 864.0,21.228743096319484 865.0,21.249444651847703 866.0,21.270294272879088 867.0,21.291291136306306 868.0,21.31243441320913 869.0,21.3337232688872 870.0,21.35515686289294 871.0,21.37673434906477 872.0,21.398454875560468 873.0,21.420317584890842 874.0,21.442321613953574 875.0,21.464466094067262 876.0,21.486750151005754 877.0,21.509172905032635 878.0,21.531733470935976 879.0,21.554430958063257 880.0,21.57726447035656 881.0,21.600233106387904 882.0,21.623335959394876 883.0,21.6465721173164 884.0,21.66994066282874 885.0,21.693440673381744 886.0,21.717071221235216 887.0,21.74083137349561 888.0,21.76472019215278 889.0,21.78873673411708 890.0,21.812880051256553 891.0,21.837149190434378 892.0,21.8615431935465 893.0,21.886061097559438 894.0,21.910701934548328 895.0,21.935464731735117 896.0,21.960348511526973 897.0,21.985352291554875 898.0,22.010475084712407 899.0,22.035715899194706 900.0,22.061073738537633 901.0,22.08654760165712 902.0,22.112136482888662 903.0,22.137839372027045 904.0,22.16365525436622 905.0,22.18958311073935 906.0,22.215621917559062 907.0,22.241770646857848 908.0,22.268028266328656 909.0,22.29439373936562 910.0,22.32086602510502 911.0,22.347444078466328 912.0,22.374126850193523 913.0,22.400913286896454 914.0,22.42780233109247 915.0,22.454792921248142 916.0,22.481883991821196 917.0,22.509074473302547 918.0,22.536363292258542 919.0,22.56374937137334 920.0,22.591231629491425 921.0,22.618808981660308 922.0,22.646480339173337 923.0,22.67424460961271 924.0,22.70210069689256 925.0,22.730047501302266 926.0,22.75808391954984 927.0,22.786208844805493 928.0,22.814421166745337 929.0,22.842719771595206 930.0,22.871103542174637 931.0,22.89957135794097 932.0,22.92812209503358 933.0,22.956754626318254 934.0,22.985467821431687 935.0,23.014260546826097 936.0,23.043131665813988 937.0,23.07208003861302 938.0,23.101104522390994 939.0,23.130203971311 940.0,23.15937723657661 941.0,23.18862316647727 942.0,23.217940606433746 943.0,23.247328399043703 944.0,23.276785384127415 945.0,23.306310398773544 946.0,23.33590227738507 947.0,23.365559851725287 948.0,23.395281950963955 949.0,23.425067401723478 950.0,23.45491502812526 951.0,23.48482365183613 952.0,23.514792092114824 953.0,23.54481916585864 954.0,23.57490368765012 955.0,23.605044469803858 956.0,23.635240322413374 957.0,23.66549005339812 958.0,23.695792468550515 959.0,23.726146371583088 960.0,23.75655056417573 961.0,23.787003846022962 962.0,23.817505014881377 963.0,23.848052866617046 964.0,23.878646195253097 965.0,23.909283793017288 966.0,23.939964450389727 967.0,23.970686956150594 968.0,24.001450097427963 969.0,24.0322526597457 970.0,24.063093427071376 971.0,24.093971181864315 972.0,24.12488470512362 973.0,24.155832776436334 974.0,24.18681417402558 975.0,24.217827674798844 976.0,24.248872054396216 977.0,24.279946087238738 978.0,24.31104854657681 979.0,24.342178204538587 980.0,24.37333383217848 981.0,24.40451419952565 982.0,24.435718075632593 983.0,24.466944228623703 984.0,24.498191425743926 985.0,24.52945843340743 986.0,24.560744017246282 987.0,24.592046942159214 988.0,24.623365972360336 989.0,24.654699871427972 990.0,24.686047402353434 991.0,24.717407327589875 992.0,24.748778409101153 993.0,24.780159408410675 994.0,24.811549086650327 995.0,24.84294620460936 996.0,24.874349522783316 997.0,24.905757801422958 998.0,24.93716980058324 999.0,24.968584280172205 1000.0,25.0 1000.0,75.0 999.0,75.03141571982779 998.0,75.06283019941677 997.0,75.09424219857704 996.0,75.12565047721668 995.0,75.15705379539064 994.0,75.18845091334967 993.0,75.21984059158933 992.0,75.25122159089885 991.0,75.28259267241012 990.0,75.31395259764656 989.0,75.34530012857202 988.0,75.37663402763967 987.0,75.40795305784079 986.0,75.43925598275372 985.0,75.47054156659257 984.0,75.50180857425607 983.0,75.5330557713763 982.0,75.5642819243674 981.0,75.59548580047435 980.0,75.62666616782153 979.0,75.65782179546142 978.0,75.68895145342319 977.0,75.72005391276126 976.0,75.75112794560378 975.0,75.78217232520116 974.0,75.81318582597441 973.0,75.84416722356367 972.0,75.87511529487638 971.0,75.90602881813568 970.0,75.93690657292862 969.0,75.9677473402543 968.0,75.99854990257204 967.0,76.0293130438494 966.0,76.06003554961028 965.0,76.0907162069827 964.0,76.1213538047469 963.0,76.15194713338295 962.0,76.18249498511862 961.0,76.21299615397703 960.0,76.24344943582427 959.0,76.27385362841692 958.0,76.30420753144948 957.0,76.33450994660188 956.0,76.36475967758662 955.0,76.39495553019614 954.0,76.42509631234988 953.0,76.45518083414136 952.0,76.48520790788517 951.0,76.51517634816386 950.0,76.54508497187474 949.0,76.57493259827652 948.0,76.60471804903605 947.0,76.6344401482747 946.0,76.66409772261493 945.0,76.69368960122645 944.0,76.72321461587258 943.0,76.75267160095629 942.0,76.78205939356626 941.0,76.81137683352273 940.0,76.84062276342338 939.0,76.869796028689 938.0,76.898895477609 937.0,76.92791996138698 936.0,76.95686833418601 935.0,76.9857394531739 934.0,77.01453217856832 933.0,77.04324537368174 932.0,77.07187790496643 931.0,77.10042864205903 930.0,77.12889645782536 929.0,77.1572802284048 928.0,77.18557883325467 927.0,77.21379115519451 926.0,77.24191608045015 925.0,77.26995249869773 924.0,77.29789930310744 923.0,77.32575539038729 922.0,77.35351966082666 921.0,77.38119101833969 920.0,77.40876837050858 919.0,77.43625062862667 918.0,77.46363670774146 917.0,77.49092552669745 916.0,77.51811600817881 915.0,77.54520707875186 914.0,77.57219766890753 913.0,77.59908671310355 912.0,77.62587314980648 911.0,77.65255592153368 910.0,77.67913397489498 909.0,77.70560626063438 908.0,77.73197173367134 907.0,77.75822935314216 906.0,77.78437808244094 905.0,77.81041688926065 904.0,77.83634474563378 903.0,77.86216062797295 902.0,77.88786351711134 901.0,77.91345239834288 900.0,77.93892626146237 899.0,77.9642841008053 898.0,77.98952491528759 897.0,78.01464770844512 896.0,78.03965148847303 895.0,78.06453526826488 894.0,78.08929806545167 893.0,78.11393890244057 892.0,78.1384568064535 891.0,78.16285080956563 890.0,78.18711994874344 889.0,78.21126326588292 888.0,78.23527980784722 887.0,78.25916862650439 886.0,78.28292877876478 885.0,78.30655932661826 884.0,78.33005933717126 883.0,78.3534278826836 882.0,78.37666404060512 881.0,78.3997668936121 880.0,78.42273552964345 879.0,78.44556904193674 878.0,78.46826652906402 877.0,78.49082709496736 876.0,78.51324984899425 875.0,78.53553390593274 874.0,78.55767838604643 873.0,78.57968241510916 872.0,78.60154512443954 871.0,78.62326565093524 870.0,78.64484313710706 869.0,78.6662767311128 868.0,78.68756558679087 867.0,78.7087088636937 866.0,78.72970572712092 865.0,78.7505553481523 864.0,78.77125690368052 863.0,78.79180957644361 862.0,78.81221255505724 861.0,78.83246503404675 860.0,78.85256621387894 859.0,78.87251530099367 858.0,78.89231150783512 857.0,78.91195405288295 856.0,78.93144216068309 855.0,78.95077506187845 854.0,78.96995199323918 853.0,78.98897219769286 852.0,79.00783492435438 851.0,79.02653942855561 850.0,79.04508497187474 849.0,79.06347082216547 848.0,79.08169625358592 847.0,79.09976054662727 846.0,79.11766298814213 845.0,79.1354028713728 844.0,79.15297949597907 843.0,79.17039216806586 842.0,79.18764020021071 841.0,79.20472291149085 840.0,79.22163962751007 839.0,79.23838968042541 838.0,79.25497240897346 837.0,79.27138715849648 836.0,79.28763328096827 835.0,79.30371013501971 834.0,79.31961708596418 833.0,79.33535350582245 832.0,79.35091877334763 831.0,79.3663122740496 830.0,79.38153340021931 829.0,79.39658155095279 828.0,79.41145613217476 827.0,79.42615655666228 826.0,79.44068224406772 825.0,79.45503262094184 824.0,79.46920712075632 823.0,79.48320518392617 822.0,79.49702625783185 821.0,79.51066979684101 820.0,79.5241352623301 819.0,79.53742212270558 818.0,79.55052985342498 817.0,79.56345793701752 816.0,79.57620586310459 815.0,79.5887731284199 814.0,79.60115923682935 813.0,79.61336369935057 812.0,79.6253860341723 811.0,79.63722576667331 810.0,79.64888242944126 809.0,79.66035556229106 808.0,79.67164471228305 807.0,79.68274943374097 806.0,79.69366928826938 805.0,79.70440384477112 804.0,79.71495267946432 803.0,79.72531537589903 802.0,79.73549152497372 801.0,79.74548072495148 800.0,79.75528258147577 799.0,79.76489670758609 798.0,79.77432272373322 797.0,79.78356025779415 796.0,79.79260894508688 795.0,79.80146842838471 794.0,79.81013835793043 793.0,79.81861839145004 792.0,79.82690819416636 791.0,79.83500743881217 790.0,79.84291580564316 789.0,79.85063298245053 788.0,79.85815866457337 787.0,79.86549255491063 786.0,79.87263436393289 785.0,79.87958380969374 784.0,79.88634061784097 783.0,79.89290452162736 782.0,79.89927526192123 781.0,79.90545258721667 780.0,79.91143625364344 779.0,79.91722602497664 778.0,79.92282167264602 777.0,79.92822297574499 776.0,79.93342972103935 775.0,79.9384417029757 774.0,79.94325872368957 773.0,79.94788059301325 772.0,79.95230712848326 771.0,79.95653815534753 770.0,79.96057350657239 769.0,79.96441302284907 768.0,79.96805655260005 767.0,79.971503951985 766.0,79.9747550849065 765.0,79.9778098230154 764.0,79.98066804571586 763.0,79.98332964017015 762.0,79.98579450130308 761.0,79.98806253180612 760.0,79.99013364214136 759.0,79.99200775054487 758.0,79.99368478303009 757.0,79.99516467339062 756.0,79.99644736320295 755.0,79.99753280182865 754.0,79.9984209464165 753.0,79.99911176190405 752.0,79.99960522101908 751.0,79.99990130428068 750.0,80.0 749.0,79.99990130428068 748.0,79.99960522101908 747.0,79.99911176190405 746.0,79.9984209464165 745.0,79.99753280182865 744.0,79.99644736320295 743.0,79.99516467339062 742.0,79.99368478303009 741.0,79.99200775054487 740.0,79.99013364214136 739.0,79.98806253180612 738.0,79.98579450130308 737.0,79.98332964017015 736.0,79.98066804571586 735.0,79.9778098230154 734.0,79.9747550849065 733.0,79.971503951985 732.0,79.96805655260005 731.0,79.96441302284907 730.0,79.96057350657239 729.0,79.95653815534753 728.0,79.95230712848326 727.0,79.94788059301325 726.0,79.94325872368957 725.0,79.9384417029757 724.0,79.93342972103935 723.0,79.92822297574499 722.0,79.92282167264602 721.0,79.91722602497664 720.0,79.91143625364344 719.0,79.90545258721667 718.0,79.89927526192123 717.0,79.89290452162736 716.0,79.88634061784097 715.0,79.87958380969374 714.0,79.87263436393289 713.0,79.86549255491063 712.0,79.85815866457337 711.0,79.85063298245053 710.0,79.84291580564316 709.0,79.83500743881217 708.0,79.82690819416636 707.0,79.81861839145004 706.0,79.81013835793043 705.0,79.80146842838471 704.0,79.79260894508688 703.0,79.78356025779415 702.0,79.77432272373322 701.0,79.76489670758609 700.0,79.75528258147577 699.0,79.74548072495148 698.0,79.73549152497372 697.0,79.72531537589903 696.0,79.71495267946432 695.0,79.70440384477112 694.0,79.69366928826938 693.0,79.68274943374097 692.0,79.67164471228305 691.0,79.66035556229106 690.0,79.64888242944126 689.0,79.63722576667331 688.0,79.6253860341723 687.0,79.61336369935057 686.0,79.60115923682935 685.0,79.5887731284199 684.0,79.57620586310459 683.0,79.56345793701752 682.0,79.55052985342498 681.0,79.53742212270558 680.0,79.52413526233009 679.0,79.51066979684101 678.0,79.49702625783186 677.0,79.48320518392617 676.0,79.46920712075632 675.0,79.45503262094184 674.0,79.44068224406772 673.0,79.42615655666228 672.0,79.41145613217476 671.0,79.39658155095279 670.0,79.38153340021933 669.0,79.3663122740496 668.0,79.35091877334763 667.0,79.33535350582245 666.0,79.31961708596418 665.0,79.30371013501971 664.0,79.28763328096827 663.0,79.27138715849648 662.0,79.25497240897346 661.0,79.23838968042541 660.0,79.22163962751007 659.0,79.20472291149085 658.0,79.18764020021071 657.0,79.17039216806586 656.0,79.15297949597907 655.0,79.1354028713728 654.0,79.11766298814214 653.0,79.09976054662727 652.0,79.08169625358592 651.0,79.06347082216547 650.0,79.04508497187473 649.0,79.02653942855561 648.0,79.00783492435438 647.0,78.98897219769286 646.0,78.96995199323918 645.0,78.95077506187845 644.0,78.93144216068309 643.0,78.91195405288295 642.0,78.89231150783512 641.0,78.87251530099367 640.0,78.85256621387894 639.0,78.83246503404675 638.0,78.81221255505724 637.0,78.79180957644361 636.0,78.77125690368052 635.0,78.7505553481523 634.0,78.72970572712092 633.0,78.7087088636937 632.0,78.68756558679087 631.0,78.6662767311128 630.0,78.64484313710706 629.0,78.62326565093524 628.0,78.60154512443954 627.0,78.57968241510916 626.0,78.55767838604643 625.0,78.53553390593274 624.0,78.51324984899425 623.0,78.49082709496736 622.0,78.46826652906402 621.0,78.44556904193674 620.0,78.42273552964345 619.0,78.3997668936121 618.0,78.37666404060512 617.0,78.3534278826836 616.0,78.33005933717126 615.0,78.30655932661826 614.0,78.28292877876478 613.0,78.25916862650439 612.0,78.23527980784722 611.0,78.21126326588292 610.0,78.18711994874344 609.0,78.16285080956563 608.0,78.1384568064535 607.0,78.11393890244057 606.0,78.08929806545167 605.0,78.06453526826488 604.0,78.03965148847303 603.0,78.01464770844512 602.0,77.98952491528759 601.0,77.9642841008053 600.0,77.93892626146237 599.0,77.91345239834288 598.0,77.88786351711134 597.0,77.86216062797295 596.0,77.83634474563378 595.0,77.81041688926065 594.0,77.78437808244094 593.0,77.75822935314216 592.0,77.73197173367134 591.0,77.70560626063438 590.0,77.67913397489498 589.0,77.65255592153368 588.0,77.62587314980648 587.0,77.59908671310355 586.0,77.57219766890753 585.0,77.54520707875186 584.0,77.51811600817881 583.0,77.49092552669745 582.0,77.46363670774146 581.0,77.43625062862667 580.0,77.40876837050858 579.0,77.38119101833969 578.0,77.35351966082666 577.0,77.32575539038729 576.0,77.29789930310744 575.0,77.26995249869773 574.0,77.24191608045017 573.0,77.21379115519451 572.0,77.18557883325467 571.0,77.1572802284048 570.0,77.12889645782536 569.0,77.10042864205903 568.0,77.07187790496641 567.0,77.04324537368174 566.0,77.01453217856832 565.0,76.9857394531739 564.0,76.95686833418601 563.0,76.92791996138698 562.0,76.898895477609 561.0,76.869796028689 560.0,76.84062276342338 559.0,76.81137683352273 558.0,76.78205939356626 557.0,76.75267160095629 556.0,76.72321461587259 555.0,76.69368960122645 554.0,76.66409772261494 553.0,76.6344401482747 552.0,76.60471804903605 551.0,76.57493259827652 550.0,76.54508497187473 549.0,76.51517634816388 548.0,76.48520790788517 547.0,76.45518083414136 546.0,76.42509631234988 545.0,76.39495553019614 544.0,76.36475967758662 543.0,76.33450994660188 542.0,76.30420753144948 541.0,76.27385362841692 540.0,76.24344943582427 539.0,76.21299615397704 538.0,76.18249498511862 537.0,76.15194713338295 536.0,76.1213538047469 535.0,76.09071620698272 534.0,76.06003554961028 533.0,76.02931304384941 532.0,75.99854990257204 531.0,75.9677473402543 530.0,75.93690657292862 529.0,75.90602881813568 528.0,75.87511529487638 527.0,75.84416722356367 526.0,75.81318582597441 525.0,75.78217232520116 524.0,75.75112794560378 523.0,75.72005391276126 522.0,75.68895145342319 521.0,75.65782179546142 520.0,75.62666616782153 519.0,75.59548580047435 518.0,75.5642819243674 517.0,75.5330557713763 516.0,75.50180857425607 515.0,75.47054156659257 514.0,75.43925598275372 513.0,75.40795305784079 512.0,75.37663402763967 511.0,75.34530012857203 510.0,75.31395259764656 509.0,75.28259267241012 508.0,75.25122159089885 507.0,75.21984059158933 506.0,75.18845091334967 505.0,75.15705379539064 504.0,75.1256504772167 503.0,75.09424219857704 502.0,75.06283019941677 501.0,75.03141571982779 500.0,75.0 499.0,74.96858428017221 498.0,74.93716980058323 497.0,74.90575780142296 496.0,74.87434952278332 495.0,74.84294620460936 494.0,74.81154908665033 493.0,74.78015940841067 492.0,74.74877840910115 491.0,74.71740732758988 490.0,74.68604740235344 489.0,74.65469987142797 488.0,74.62336597236033 487.0,74.59204694215921 486.0,74.56074401724628 485.0,74.52945843340743 484.0,74.49819142574393 483.0,74.4669442286237 482.0,74.4357180756326 481.0,74.40451419952565 480.0,74.37333383217847 479.0,74.34217820453858 478.0,74.31104854657681 477.0,74.27994608723874 476.0,74.24887205439622 475.0,74.21782767479884 474.0,74.18681417402559 473.0,74.15583277643633 472.0,74.12488470512362 471.0,74.09397118186432 470.0,74.06309342707138 469.0,74.0322526597457 468.0,74.00145009742796 467.0,73.97068695615059 466.0,73.93996445038972 465.0,73.9092837930173 464.0,73.8786461952531 463.0,73.84805286661705 462.0,73.81750501488138 461.0,73.78700384602297 460.0,73.75655056417573 459.0,73.72614637158308 458.0,73.69579246855051 457.0,73.66549005339813 456.0,73.63524032241338 455.0,73.60504446980386 454.0,73.57490368765012 453.0,73.54481916585864 452.0,73.51479209211483 451.0,73.48482365183612 450.0,73.45491502812526 449.0,73.42506740172348 448.0,73.39528195096395 447.0,73.3655598517253 446.0,73.33590227738507 445.0,73.30631039877355 444.0,73.27678538412741 443.0,73.24732839904371 442.0,73.21794060643374 441.0,73.18862316647727 440.0,73.15937723657662 439.0,73.130203971311 438.0,73.101104522391 437.0,73.07208003861302 436.0,73.04313166581399 435.0,73.0142605468261 434.0,72.98546782143168 433.0,72.95675462631826 432.0,72.92812209503359 431.0,72.89957135794097 430.0,72.87110354217464 429.0,72.8427197715952 428.0,72.81442116674533 427.0,72.78620884480549 426.0,72.75808391954983 425.0,72.73004750130227 424.0,72.70210069689256 423.0,72.67424460961271 422.0,72.64648033917334 421.0,72.61880898166031 420.0,72.59123162949142 419.0,72.56374937137333 418.0,72.53636329225854 417.0,72.50907447330255 416.0,72.48188399182119 415.0,72.45479292124814 414.0,72.42780233109247 413.0,72.40091328689645 412.0,72.37412685019352 411.0,72.34744407846632 410.0,72.32086602510502 409.0,72.29439373936562 408.0,72.26802826632866 407.0,72.24177064685784 406.0,72.21562191755906 405.0,72.18958311073935 404.0,72.16365525436622 403.0,72.13783937202705 402.0,72.11213648288866 401.0,72.08654760165712 400.0,72.06107373853763 399.0,72.0357158991947 398.0,72.01047508471241 397.0,71.98535229155488 396.0,71.96034851152697 395.0,71.93546473173512 394.0,71.91070193454833 393.0,71.88606109755943 392.0,71.8615431935465 391.0,71.83714919043437 390.0,71.81288005125656 389.0,71.78873673411708 388.0,71.76472019215278 387.0,71.74083137349561 386.0,71.71707122123522 385.0,71.69344067338174 384.0,71.66994066282874 383.0,71.6465721173164 382.0,71.62333595939488 381.0,71.6002331063879 380.0,71.57726447035655 379.0,71.55443095806326 378.0,71.53173347093598 377.0,71.50917290503264 376.0,71.48675015100575 375.0,71.46446609406726 374.0,71.44232161395357 373.0,71.42031758489084 372.0,71.39845487556046 371.0,71.37673434906476 370.0,71.35515686289294 369.0,71.3337232688872 368.0,71.31243441320913 367.0,71.2912911363063 366.0,71.27029427287908 365.0,71.24944465184771 364.0,71.22874309631948 363.0,71.20819042355639 362.0,71.18778744494276 361.0,71.16753496595325 360.0,71.14743378612106 359.0,71.12748469900633 358.0,71.10768849216488 357.0,71.08804594711705 356.0,71.06855783931691 355.0,71.04922493812155 354.0,71.03004800676082 353.0,71.01102780230714 352.0,70.99216507564562 351.0,70.97346057144439 350.0,70.95491502812526 349.0,70.93652917783453 348.0,70.91830374641408 347.0,70.90023945337273 346.0,70.88233701185786 345.0,70.8645971286272 344.0,70.84702050402093 343.0,70.82960783193414 342.0,70.81235979978929 341.0,70.79527708850915 340.0,70.77836037248993 339.0,70.76161031957459 338.0,70.74502759102654 337.0,70.72861284150352 336.0,70.71236671903173 335.0,70.69628986498029 334.0,70.68038291403582 333.0,70.66464649417755 332.0,70.64908122665237 331.0,70.6336877259504 330.0,70.61846659978069 329.0,70.60341844904721 328.0,70.58854386782524 327.0,70.57384344333772 326.0,70.55931775593228 325.0,70.54496737905816 324.0,70.53079287924368 323.0,70.51679481607383 322.0,70.50297374216815 321.0,70.48933020315899 320.0,70.47586473766991 319.0,70.46257787729442 318.0,70.44947014657502 317.0,70.43654206298248 316.0,70.42379413689541 315.0,70.4112268715801 314.0,70.39884076317065 313.0,70.38663630064943 312.0,70.3746139658277 311.0,70.36277423332669 310.0,70.35111757055874 309.0,70.33964443770894 308.0,70.32835528771695 307.0,70.31725056625903 306.0,70.30633071173062 305.0,70.29559615522888 304.0,70.28504732053568 303.0,70.27468462410097 302.0,70.26450847502628 301.0,70.25451927504852 300.0,70.24471741852423 299.0,70.23510329241391 298.0,70.22567727626678 297.0,70.21643974220585 296.0,70.20739105491312 295.0,70.19853157161529 294.0,70.18986164206957 293.0,70.18138160854996 292.0,70.17309180583364 291.0,70.16499256118783 290.0,70.15708419435684 289.0,70.14936701754947 288.0,70.14184133542663 287.0,70.13450744508937 286.0,70.12736563606711 285.0,70.12041619030626 284.0,70.11365938215903 283.0,70.10709547837264 282.0,70.10072473807877 281.0,70.09454741278333 280.0,70.08856374635656 279.0,70.08277397502336 278.0,70.07717832735398 277.0,70.07177702425501 276.0,70.06657027896065 275.0,70.0615582970243 274.0,70.05674127631043 273.0,70.05211940698675 272.0,70.04769287151674 271.0,70.04346184465247 270.0,70.03942649342761 269.0,70.03558697715093 268.0,70.03194344739995 267.0,70.028496048015 266.0,70.0252449150935 265.0,70.0221901769846 264.0,70.01933195428414 263.0,70.01667035982985 262.0,70.01420549869692 261.0,70.01193746819388 260.0,70.00986635785864 259.0,70.00799224945513 258.0,70.00631521696991 257.0,70.00483532660938 256.0,70.00355263679705 255.0,70.00246719817135 254.0,70.0015790535835 253.0,70.00088823809595 252.0,70.00039477898092 251.0,70.00009869571932 250.0,70.0 249.0,70.00009869571932 248.0,70.00039477898092 247.0,70.00088823809595 246.0,70.0015790535835 245.0,70.00246719817135 244.0,70.00355263679705 243.0,70.00483532660938 242.0,70.00631521696991 241.0,70.00799224945513 240.0,70.00986635785864 239.0,70.01193746819388 238.0,70.01420549869692 237.0,70.01667035982985 236.0,70.01933195428414 235.0,70.0221901769846 234.0,70.0252449150935 233.0,70.028496048015 232.0,70.03194344739995 231.0,70.03558697715093 230.0,70.03942649342761 229.0,70.04346184465247 228.0,70.04769287151674 227.0,70.05211940698675 226.0,70.05674127631043 225.0,70.0615582970243 224.0,70.06657027896065 223.0,70.07177702425501 222.0,70.07717832735398 221.0,70.08277397502336 220.0,70.08856374635656 219.0,70.09454741278333 218.0,70.10072473807877 217.0,70.10709547837264 216.0,70.11365938215903 215.0,70.12041619030626 214.0,70.12736563606711 213.0,70.13450744508937 212.0,70.14184133542663 211.0,70.14936701754947 210.0,70.15708419435684 209.0,70.16499256118783 208.0,70.17309180583364 207.0,70.18138160854996 206.0,70.18986164206957 205.0,70.19853157161529 204.0,70.20739105491312 203.0,70.21643974220585 202.0,70.22567727626678 201.0,70.23510329241391 200.0,70.24471741852423 199.0,70.25451927504852 198.0,70.26450847502628 197.0,70.27468462410097 196.0,70.28504732053568 195.0,70.29559615522888 194.0,70.30633071173062 193.0,70.31725056625903 192.0,70.32835528771695 191.0,70.33964443770894 190.0,70.35111757055874 189.0,70.36277423332669 188.0,70.3746139658277 187.0,70.38663630064943 186.0,70.39884076317065 185.0,70.4112268715801 184.0,70.42379413689541 183.0,70.43654206298248 182.0,70.44947014657502 181.0,70.46257787729442 180.0,70.4758647376699 179.0,70.48933020315899 178.0,70.50297374216814 177.0,70.51679481607383 176.0,70.53079287924368 175.0,70.54496737905816 174.0,70.55931775593228 173.0,70.57384344333772 172.0,70.58854386782524 171.0,70.60341844904721 170.0,70.61846659978067 169.0,70.6336877259504 168.0,70.64908122665237 167.0,70.66464649417755 166.0,70.68038291403582 165.0,70.69628986498029 164.0,70.71236671903173 163.0,70.72861284150352 162.0,70.74502759102654 161.0,70.76161031957459 160.0,70.77836037248993 159.0,70.79527708850915 158.0,70.81235979978929 157.0,70.82960783193414 156.0,70.84702050402093 155.0,70.8645971286272 154.0,70.88233701185786 153.0,70.90023945337273 152.0,70.91830374641408 151.0,70.93652917783453 150.0,70.95491502812526 149.0,70.97346057144439 148.0,70.99216507564562 147.0,71.01102780230714 146.0,71.03004800676082 145.0,71.04922493812155 144.0,71.06855783931691 143.0,71.08804594711705 142.0,71.10768849216488 141.0,71.12748469900633 140.0,71.14743378612106 139.0,71.16753496595325 138.0,71.18778744494276 137.0,71.20819042355639 136.0,71.22874309631948 135.0,71.2494446518477 134.0,71.27029427287908 133.0,71.2912911363063 132.0,71.31243441320913 131.0,71.3337232688872 130.0,71.35515686289294 129.0,71.37673434906476 128.0,71.39845487556046 127.0,71.42031758489084 126.0,71.44232161395357 125.0,71.46446609406726 124.0,71.48675015100575 123.0,71.50917290503264 122.0,71.53173347093598 121.0,71.55443095806326 120.0,71.57726447035655 119.0,71.6002331063879 118.0,71.62333595939488 117.0,71.6465721173164 116.0,71.66994066282874 115.0,71.69344067338174 114.0,71.71707122123522 113.0,71.74083137349561 112.0,71.76472019215278 111.0,71.78873673411708 110.0,71.81288005125656 109.0,71.83714919043437 108.0,71.8615431935465 107.0,71.88606109755943 106.0,71.91070193454833 105.0,71.93546473173512 104.0,71.96034851152697 103.0,71.98535229155488 102.0,72.01047508471241 101.0,72.0357158991947 100.0,72.06107373853763 99.0,72.08654760165712 98.0,72.11213648288866 97.0,72.13783937202705 96.0,72.16365525436622 95.0,72.18958311073935 94.0,72.21562191755906 93.0,72.24177064685784 92.0,72.26802826632866 91.0,72.29439373936562 90.0,72.32086602510502 89.0,72.34744407846632 88.0,72.37412685019352 87.0,72.40091328689645 86.0,72.42780233109247 85.0,72.45479292124814 84.0,72.48188399182119 83.0,72.50907447330255 82.0,72.53636329225854 81.0,72.56374937137333 80.0,72.59123162949142 79.0,72.61880898166031 78.0,72.64648033917334 77.0,72.67424460961271 76.0,72.70210069689256 75.0,72.73004750130227 74.0,72.75808391954983 73.0,72.78620884480549 72.0,72.81442116674533 71.0,72.8427197715952 70.0,72.87110354217464 69.0,72.89957135794097 68.0,72.92812209503359 67.0,72.95675462631826 66.0,72.98546782143168 65.0,73.0142605468261 64.0,73.04313166581399 63.0,73.07208003861302 62.0,73.101104522391 61.0,73.130203971311 60.0,73.15937723657662 59.0,73.18862316647727 58.0,73.21794060643374 57.0,73.24732839904371 56.0,73.27678538412741 55.0,73.30631039877355 54.0,73.33590227738506 53.0,73.3655598517253 52.0,73.39528195096395 51.0,73.42506740172348 50.0,73.45491502812526 49.0,73.48482365183614 48.0,73.51479209211483 47.0,73.54481916585864 46.0,73.57490368765012 45.0,73.60504446980386 44.0,73.63524032241338 43.0,73.66549005339812 42.0,73.69579246855052 41.0,73.72614637158308 40.0,73.75655056417573 39.0,73.78700384602297 38.0,73.81750501488138 37.0,73.84805286661705 36.0,73.8786461952531 35.0,73.90928379301728 34.0,73.93996445038972 33.0,73.97068695615059 32.0,74.00145009742796 31.0,74.0322526597457 30.0,74.06309342707138 29.0,74.09397118186432 28.0,74.12488470512362 27.0,74.15583277643633 26.0,74.18681417402559 25.0,74.21782767479884 24.0,74.24887205439622 23.0,74.27994608723874 22.0,74.31104854657681 21.0,74.34217820453858 20.0,74.37333383217847 19.0,74.40451419952565 18.0,74.4357180756326 17.0,74.4669442286237 16.0,74.49819142574393 15.0,74.52945843340743 14.0,74.56074401724628 13.0,74.59204694215921 12.0,74.62336597236033 11.0,74.65469987142797 10.0,74.68604740235344 9.0,74.71740732758988 8.0,74.74877840910115 7.0,74.78015940841068 6.0,74.81154908665033 5.0,74.84294620460936 4.0,74.87434952278332 3.0,74.90575780142296 2.0,74.93716980058323 1.0,74.96858428017221 0.0,75.0 0,25.0 "
fill="black" stroke="black" /></svg>